o Plane
v -14.998553868734003 0.19744406761656513 -14.997254215138142
v 14.998553868734003 0.19744406761656513 -14.997254215138142
v -14.998553868734003 -0.19744406761656513 14.997254215138142
v 14.998553868734003 -0.19744406761656513 14.997254215138142
vt 0 1
vt 1 1
vt 0 0
vt 1 0
vn 0 0.016718381457645443 0.00022010330635263356
vn 0 0.016718381457645443 0.00022010330635263356
vn 0 0.016718381457645443 0.00022010330635263356
vn 0 0.016718381457645443 0.00022010330635263356
f 1/1/1 3/3/3 2/2/2
f 3/3/3 4/4/4 2/2/2
